<?xml version="1.0" encoding="UTF-8"?>
<svg viewBox="0 0 1792 1792" xmlns="http://www.w3.org/2000/svg">
<path d="m128 1517c0-8.7 3.3-16.3 10-23l332-332-144-144c-12.7-12.7-19-27.7-19-45s6.3-32.3 19-45 27.7-19 45-19h448c17.3 0 32.3 6.3 45 19s19 27.7 19 45v448c0 17.3-6.3 32.3-19 45s-27.7 19-45 19-32.3-6.3-45-19l-144-144-332 332c-6.7 6.7-14.3 10-23 10s-16.3-3.3-23-10l-114-114c-6.7-6.7-10-14.3-10-23zm781-698v-448c0-17.3 6.3-32.3 19-45s27.7-19 45-19 32.3 6.3 45 19l144 144 332-332c6.7-6.7 14.3-10 23-10s16.3 3.3 23 10l114 114c6.7 6.7 10 14.3 10 23s-3.3 16.3-10 23l-332 332 144 144c12.7 12.7 19 27.7 19 45s-6.3 32.3-19 45-27.7 19-45 19h-448c-17.3 0-32.3-6.3-45-19s-19-27.7-19-45z"/>
</svg>
