<?xml version="1.0" encoding="UTF-8"?>
<svg viewBox="0 0 283.3 132.6" xmlns="http://www.w3.org/2000/svg">
<g fill="#1F262C">
<path d="M8.1 97.8v34.8H0.7V97.8H8.1z"/>
<path d="m23.3 104.7c1.2-2.4 2.8-4.1 4.8-5.4 2-1.2 4.4-1.8 7.1-1.8v7.2c-1.7-0.1-3.3 0.1-4.7 0.5s-2.6 1.1-3.6 1.9c-1 0.9-1.8 1.9-2.5 3.1-0.6 1.2-1 2.6-1.1 4.1v18.2h-7.5v-34.7h7.5v6.9z"/>
<path d="m54.6 97.5c2.7 0 5.1 0.4 7.3 1.3s4.1 2.1 5.7 3.6c1.6 1.6 2.8 3.4 3.7 5.6s1.3 4.6 1.3 7.2-0.4 5-1.3 7.2-2.1 4.1-3.7 5.6c-1.6 1.6-3.5 2.8-5.7 3.6-2.2 0.9-4.6 1.3-7.3 1.3s-5.1-0.4-7.3-1.3-4.1-2.1-5.7-3.6c-1.6-1.6-2.8-3.4-3.7-5.6s-1.3-4.6-1.3-7.2 0.4-5 1.3-7.2 2.1-4 3.7-5.6c1.6-1.5 3.5-2.7 5.7-3.6s4.6-1.3 7.3-1.3zm0 6.4c-1.6 0-3 0.3-4.3 0.8s-2.4 1.3-3.3 2.3-1.7 2.2-2.2 3.6-0.8 2.9-0.8 4.6 0.3 3.2 0.8 4.6 1.2 2.6 2.2 3.6c0.9 1 2 1.8 3.3 2.3s2.7 0.8 4.3 0.8 3-0.3 4.3-0.8 2.4-1.3 3.3-2.3 1.7-2.2 2.2-3.6 0.8-2.9 0.8-4.6-0.3-3.2-0.8-4.6-1.2-2.6-2.2-3.6c-0.9-1-2-1.8-3.3-2.3s-2.7-0.8-4.3-0.8z"/>
<path d="m97.4 97.5c4.1 0 7.2 1.2 9.5 3.6s3.4 5.7 3.4 9.9v21.7h-7.5v-19.7c0-2.6-0.7-4.7-2.2-6.2s-3.5-2.3-6.1-2.3c-2.9 0-5.1 1-6.9 2.7-1.7 1.8-2.7 4-3 6.8v18.6h-7.5v-34.8h7.5v6.6c1.3-2.4 3-4.2 5.1-5.3 2.2-1.1 4.7-1.6 7.7-1.6z"/>
<path d="m138.3 106.6c-1.5-1-3.2-1.7-5-2.3-1.8-0.5-3.5-0.8-5-0.8s-2.7 0.3-3.7 0.8-1.4 1.4-1.4 2.7c0 1 0.5 1.9 1.4 2.5s2.1 1.1 3.4 1.6c1.4 0.5 2.8 0.9 4.4 1.4s3.1 1.1 4.4 1.9c1.4 0.8 2.5 1.9 3.4 3.1 0.9 1.3 1.3 3 1.3 5.1 0 1.8-0.4 3.3-1.1 4.6s-1.7 2.4-2.9 3.2-2.6 1.5-4.2 1.9-3.3 0.6-5 0.6c-2.6 0-5.1-0.4-7.6-1.2s-4.6-2-6.3-3.6l2.7-5.4c1.5 1.4 3.3 2.4 5.5 3.2 2.1 0.8 4.2 1.1 6.1 1.1 1.6 0 2.9-0.3 4-0.9s1.6-1.5 1.6-2.8c0-1.2-0.4-2.1-1.3-2.7-0.9-0.7-2-1.2-3.4-1.7s-2.8-0.9-4.4-1.4c-1.6-0.4-3-1-4.4-1.8-1.3-0.8-2.5-1.8-3.3-3-0.9-1.3-1.3-2.9-1.3-5 0-1.8 0.4-3.3 1.1-4.6s1.7-2.3 2.8-3.1c1.2-0.8 2.5-1.4 4.1-1.8 1.5-0.4 3.1-0.6 4.8-0.6 2.2 0 4.4 0.3 6.5 0.9s4 1.5 5.6 2.6l-2.8 5.5z"/>
<path d="m166.5 97.5c4.1 0 7.2 1.2 9.5 3.6s3.4 5.7 3.4 9.9v21.7h-7.5v-19.7c0-2.6-0.7-4.7-2.2-6.2s-3.5-2.3-6.1-2.3c-1.6 0-2.9 0.3-4.2 0.9-1.2 0.6-2.2 1.3-3.1 2.3-0.8 1-1.5 2.1-1.9 3.4-0.5 1.3-0.7 2.8-0.7 4.3v17.2h-7.5v-48.6h7.5v20.6c1.3-2.5 3-4.3 5.1-5.4 2.2-1.1 4.7-1.7 7.7-1.7z"/>
<path d="m220.6 97.8v34.8h-7.5v-5.9c-1.3 2-2.9 3.5-4.9 4.6s-4.4 1.6-7.1 1.6c-2.5 0-4.7-0.4-6.8-1.3-2-0.9-3.8-2.1-5.2-3.7-1.5-1.6-2.6-3.4-3.4-5.6s-1.2-4.6-1.2-7.3c0-2.6 0.4-5 1.2-7.1s1.9-4 3.3-5.5 3.2-2.8 5.2-3.6c2-0.9 4.2-1.3 6.7-1.3 2.8 0 5.3 0.5 7.3 1.5 2.1 1.1 3.7 2.6 5 4.7v-5.9h7.4zm-18 28.8c2.9 0 5.4-0.9 7.2-2.8 1.9-1.9 3-4.3 3.3-7.3v-2.5c-0.3-3-1.4-5.5-3.3-7.3-1.9-1.9-4.3-2.8-7.2-2.8-1.6 0-3 0.3-4.3 0.9s-2.4 1.4-3.3 2.4-1.7 2.2-2.2 3.6-0.8 3-0.8 4.6c0 1.7 0.3 3.2 0.8 4.6s1.3 2.6 2.2 3.6c1 1 2.1 1.8 3.4 2.4 1.2 0.4 2.7 0.6 4.2 0.6z"/>
<path d="m235.8 104.7c1.2-2.4 2.8-4.1 4.8-5.4 2-1.2 4.4-1.8 7.1-1.8v7.2c-1.7-0.1-3.3 0.1-4.7 0.5s-2.6 1.1-3.6 1.9c-1 0.9-1.8 1.9-2.5 3.1-0.6 1.2-1 2.6-1.1 4.1v18.2h-7.5v-34.7h7.5v6.9z"/>
<path d="M264.4 116.6l-5.8 6.2v9.8H251V84h7.5v29.3l15.3-15.6h8.6l-12.8 13.5 13.8 21.3h-8.8L264.4 116.6z"/>
<path d="m4.4 84c1.3 0 2.3 0.4 3.1 1.3s1.2 1.9 1.2 3.2-0.4 2.3-1.2 3.2-1.9 1.3-3.1 1.3c-1.3 0-2.3-0.4-3.1-1.3-0.9-0.8-1.3-1.9-1.3-3.2s0.4-2.4 1.2-3.2c0.9-0.9 1.9-1.3 3.2-1.3z"/>
<path d="m40.1 79.5c-3.9 2.5-7.5-2.9-3.2-5.4 7.3-4.2 25.4-25.3 0.4-68.6-12.1-21 62.3 21.5 74.4 69.5 0.2 0.8-7.1 6.4-18.4 6.4-12 0-20.3-8.3-31.3-8.3-10.1 0-14.6 1.7-21.9 6.4z"/>
</g>
</svg>
