<?xml version="1.0" encoding="UTF-8"?>
<svg enable-background="new 0 0 512 512" version="1.1" viewBox="0 0 512 512" xml:space="preserve" xmlns="http://www.w3.org/2000/svg">
<path d="m479.97 32.18c-21.72 21.211-42.89 43-64.52 64.301-1.05 1.23-2.26-0.16-3.09-0.85-24.511-23.98-54.58-42.281-87.221-52.84-37.6-12.16-78.449-14.07-117.03-5.59-68.67 14.67-128.81 64.059-156.44 128.61 0.031 0.014 0.062 0.025 0.093 0.039-2.3 4.537-3.605 9.666-3.605 15.1 0 18.475 14.977 33.451 33.451 33.451 15.831 0 29.084-11.002 32.555-25.773 19.757-41.979 58.832-74.445 103.97-85.527 52.2-13.17 111.37 1.33 149.4 40.041-22.03 21.83-44.391 43.34-66.33 65.26 59.52-0.32 119.06-0.141 178.59-0.09 0.499-58.7 0.139-117.42 0.179-176.13z"/>
<path d="m431.61 297.5c-14.62 0-27.041 9.383-31.591 22.453-9e-3 -4e-3 -0.019-8e-3 -0.027-0.012-19.11 42.59-57.57 76.219-102.84 88.18-52.799 14.311-113.45 0.299-152.18-39.051 21.92-21.76 44.369-43.01 66.189-64.869-59.7 0.049-119.41 0.029-179.11 0.01-0.14 58.6-0.159 117.19 0.011 175.79 21.92-21.91 43.75-43.91 65.79-65.699 14.109 13.789 29.76 26.07 46.92 35.869 54.739 31.971 123.4 38.602 183.3 17.891 57.477-19.297 106.07-63.178 131.21-118.32 3.645-5.357 5.776-11.824 5.776-18.793 1e-3 -18.473-14.976-33.45-33.45-33.45z"/>
</svg>
